# Blender 4.5.4 LTS
# www.blender.org
mtllib Cornell_box.mtl
o Cornell_Box
v -2.250000 0.000000 2.250000
v -2.250000 4.500000 2.250000
v -2.250000 -0.000000 -2.250000
v -2.250000 4.500000 -2.250000
v 2.250000 0.000000 2.250000
v 2.250000 4.500000 2.250000
v 2.250000 -0.000000 -2.250000
v 2.250000 4.500000 -2.250000
vn 1.0000 -0.0000 -0.0000
vn -0.0000 1.0000 -0.0000
vn -0.0000 -1.0000 -0.0000
vn -0.0000 -0.0000 -1.0000
vn -0.0000 -0.0000 1.0000
vt 0.375000 0.000000
vt 0.375000 0.250000
vt 0.625000 0.250000
vt 0.625000 0.000000
vt 0.125000 0.500000
vt 0.125000 0.750000
vt 0.375000 0.750000
vt 0.375000 0.500000
vt 0.625000 0.500000
vt 0.625000 0.750000
vt 0.875000 0.750000
vt 0.875000 0.500000
vt 0.375000 1.000000
vt 0.625000 1.000000
s 1
usemtl Main_White
f 1/1/1 3/2/1 4/3/1 2/4/1
f 3/5/2 1/6/2 5/7/2 7/8/2
f 8/9/3 6/10/3 2/11/3 4/12/3
usemtl Left_Red
f 5/7/4 1/13/4 2/14/4 6/10/4
usemtl Right_Material
f 3/2/5 7/8/5 8/9/5 4/3/5
o Light_plane
v -0.500000 4.499000 -0.500000
v 0.500000 4.499000 -0.500000
v -0.500000 4.499000 0.500000
v 0.500000 4.499000 0.500000
vn -0.0000 -1.0000 -0.0000
vt 0.000000 0.000000
vt 1.000000 0.000000
vt 1.000000 1.000000
vt 0.000000 1.000000
s 0
usemtl Light
f 9/15/6 10/16/6 12/17/6 11/18/6
